# Blender v2.83.0 OBJ File: 'cube_with_numbers.blend'
# www.blender.org
mtllib cube_with_numbers.mtl
o Cube_Cube.001
v -1.000000 -1.000000 1.000000
v -1.000000 1.000000 1.000000
v -1.000000 -1.000000 -1.000000
v -1.000000 1.000000 -1.000000
v 1.000000 -1.000000 1.000000
v 1.000000 1.000000 1.000000
v 1.000000 -1.000000 -1.000000
v 1.000000 1.000000 -1.000000
vt 0.958723 0.686812
vt 0.812610 0.392366
vt 0.958723 0.392366
vt 0.678195 0.677427
vt 0.469139 0.402730
vt 0.678123 0.402527
vt 0.669785 0.961959
vt 0.466215 0.674405
vt 0.669658 0.674321
vt 0.972419 0.952978
vt 0.806247 0.682408
vt 0.971891 0.681265
vt 0.818048 0.396543
vt 0.655285 0.669928
vt 0.655285 0.396543
vt 0.638478 0.950533
vt 0.833521 0.676056
vt 0.833521 0.950533
vt 0.812610 0.686812
vt 0.469210 0.677629
vt 0.466342 0.962042
vt 0.806775 0.954121
vt 0.818048 0.669928
vt 0.638478 0.676056
vn -1.0000 0.0000 0.0000
vn 0.0000 0.0000 -1.0000
vn 1.0000 0.0000 0.0000
vn 0.0000 0.0000 1.0000
vn 0.0000 -1.0000 0.0000
vn 0.0000 1.0000 0.0000
usemtl Material.001
s off
f 2/1/1 3/2/1 1/3/1
f 4/4/2 7/5/2 3/6/2
f 8/7/3 5/8/3 7/9/3
f 6/10/4 1/11/4 5/12/4
f 7/13/5 1/14/5 3/15/5
f 4/16/6 6/17/6 8/18/6
f 2/1/1 4/19/1 3/2/1
f 4/4/2 8/20/2 7/5/2
f 8/7/3 6/21/3 5/8/3
f 6/10/4 2/22/4 1/11/4
f 7/13/5 5/23/5 1/14/5
f 4/16/6 2/24/6 6/17/6
